<mxfile host="app.diagrams.net" modified="2023-11-14T09:22:21.577Z" agent="Mozilla/5.0 (X11; Linux x86_64) AppleWebKit/537.36 (KHTML, like Gecko) Chrome/116.0.0.0 Safari/537.36" version="21.7.5" etag="G-LjGj336i6CcKVVp6dJ" type="github">
  <diagram name="Страница — 1" id="YlKWST7kFP6rQZ_VmnzQ">
    <mxGraphModel>
      <root>
        <mxCell id="0" />
        <mxCell id="1" parent="0" />
      </root>
    </mxGraphModel>
  </diagram>
</mxfile>
